<?xml version="1.0" encoding="utf-8"?>
<!-- Generator: Adobe Illustrator 27.2.0, SVG Export Plug-In . SVG Version: 6.00 Build 0)  -->
<svg version="1.1" id="Layer_1" xmlns="http://www.w3.org/2000/svg" xmlns:xlink="http://www.w3.org/1999/xlink" x="0px" y="0px"
	 viewBox="0 0 2000 1080" style="enable-background:new 0 0 2000 1080;" xml:space="preserve">
<style type="text/css">
	.st0{fill:#9B9A9A;}
	.st1{fill:#212121;}
	.st2{fill:url(#SVGID_1_);}
	.st3{fill:url(#SVGID_00000150812631507029946260000017658693485288454555_);}
	.st4{fill:url(#SVGID_00000040539814653651113850000002476107982872831675_);}
	.st5{fill:url(#SVGID_00000002366990308059125450000003818794089478406845_);}
	.st6{fill:url(#SVGID_00000068666312693570407040000004874900712359064717_);}
	.st7{fill:url(#SVGID_00000043451528874383433370000013089186724662307249_);}
	.st8{fill:url(#SVGID_00000096738004190643618430000001821990131886945177_);}
	.st9{fill:url(#SVGID_00000067227901649854460060000006519640008024296630_);}
	.st10{fill:url(#SVGID_00000158744205563765655470000018137992644711749815_);}
	.st11{fill:url(#SVGID_00000172400264272268349930000009170511367260651437_);}
	.st12{fill:url(#SVGID_00000111907355982961267910000002396006987677586088_);}
	.st13{fill:url(#SVGID_00000061464421590873732020000002474589585705991615_);}
	.st14{fill:url(#SVGID_00000083076361556410496930000003852212726426524301_);}
	.st15{fill:#01ACEA;}
</style>
<g>
	<g>
		<g>
			<path class="st0" d="M1895.1,763.7c5.7-6.1,6.5-12.9,9.1-18.8c1.9-4.2,3.3-8.6,5.4-12.6s6.1-4.8,10.3-4.1c4.3,0.7,6.5,4,6.7,7.7
				c0.5,10.1,0.3,20.2,0.3,30.3c0,2.5-1,4.1-3.8,4c-2.9-0.1-3.5-2-3.5-4.3c0-8.2,0-16.5-0.1-24.8c0-1.9,1-4.8-2.2-5.1
				c-2.1-0.2-2.6,2.1-3.3,3.8c-3.1,8-6.2,15.9-9.4,23.9c-2.1,5.3-6,7.7-11.6,6.4s-6.6-5.5-6.5-10.6c0.2-6.1,0.1-12.2,0-18.4
				c0-2,0.8-4.9-2.1-5.2c-2.6-0.2-2.9,2.6-3.7,4.6c-2.9,8.1-5.9,16-8.7,24.1c-1.2,3.5-2.6,6.8-6.9,5.3c-5-1.8-1-5.3-0.3-7.6
				c2.7-8.4,5.9-16.7,9.1-25c2.2-5.8,5.3-10.7,12.6-9.3c7.2,1.4,7.1,7.3,7.3,12.9C1894.1,748.1,1892.9,755.4,1895.1,763.7z"/>
			<path class="st0" d="M1849.3,728c3.7,0,7.4,0,11,0c2.5,0,4.2,0.9,4,3.7c-0.2,2.4-1.8,3.3-3.8,3c-9.2-1.4-8.8,4.5-8.6,10.7
				c0.2,6.4,0.1,12.8,0,19.3c0,2.4,0.2,5.2-3.4,5.3s-3.7-2.5-3.7-5c-0.1-7.3-0.1-14.7,0-22c0.1-4.7-0.2-8.7-6.6-8.2
				c-2.7,0.2-5.1-0.5-4.7-4c0.4-3.7,3.4-2.8,5.7-2.9C1842.6,727.9,1846,728,1849.3,728L1849.3,728z"/>
		</g>
		<g>
			<path class="st1" d="M1240.6,735.2h-125.5c-5,0-6.2,0-6.2,0c-5.3-0.3-6.8-2.2-7.5-2.8c-0.9-0.9-1.9-2.5-1.6-6.2
				c0.3-1.6,0.6-3.4,0.9-5.3c9.6-49.4,18-92.3,25.2-128.7c0.9-4.4,0-8.1-2.2-10.9c-2.2-2.5-5.6-3.7-9.6-3.7
				c-15.8,0.3-28.6,0.3-38.2,0c-5,0-8.4,1.9-9.9,3.7c-2.2,1.9-3.4,4.7-4,8.1c-5.9,31.1-15.2,77.7-27.3,139.8
				c-1.6,8.1-1.9,10.6-2.2,11.8c-0.6,5-0.6,9.9,0.3,14c1.9,9.6,6.5,17.7,14,23.9c7.5,5.9,16.2,9,26.1,9c5.9,0,32.3,0,80.8,0
				c45.4,0,72.4,0,81.4,0h0.3c3.4,0,6.5-0.9,9-2.8c2.5-2.2,4-5,4.7-8.7c0.6-3.4,2.2-12.1,5-25.8c0.6-4,1.2-8.4-1.9-11.8
				C1249,735.5,1244.7,735.2,1240.6,735.2z"/>
			<path class="st1" d="M1002.9,584.1c-5-4-11.5-6.2-19-6.2H877c-56.2,0-91.4,0-107.2,0c-4,0-7.1,0.9-9.6,2.8
				c-2.8,2.2-4.4,5.3-5,9.3c-1.6,9.3-3.1,17.7-5,25.2c-1.2,5.3-0.3,9.6,2.5,12.1c3.1,3.1,7.1,3.4,10.3,3.4c16.2,0,52.2,0,110.3,0
				c32.6,0,52.2,0,58.7,0c3.1,0,5.3,0.6,6.8,2.2c0.9,0.9,2.2,2.2,2.2,5.6c0,4.4-0.9,8.4-2.8,11.5c-1.6,2.5-3.4,4-5.6,5
				c-2.5,0.9-5.6,1.6-9.3,1.6c-62.2,0-119,0-168.7,0c-3.7,0-6.5,0.6-9,2.5c-2.8,1.9-4.7,5-5.6,9.3c-5,26.4-11.8,61.8-20.5,105.3
				c-0.3,1.6-1.2,6.2,1.6,9.9c1.6,2.2,4.4,4.7,9.9,4.7h0.3c13.1,0,26.1,0,39.2,0c5,0,7.8-1.9,9.3-3.4c1.9-1.9,3.1-4.4,3.7-7.8
				c0.6-4,5-25.8,12.7-65.6c0.3-1.2,0.3-1.6,0.6-1.9c0.3,0,0.6-0.3,1.6-0.3c63.1,0,101,0,113.4,0c4.7,0,6.2,1.2,6.5,1.2
				c0.9,0.6,1.9,2.8,2.5,6.8c1.9,13.1,4.7,32.9,8.1,59.4c0.3,3.1,1.6,5.6,3.1,7.5c1.6,1.6,4.4,3.4,9,3.4c17.1,0,31.7,0,42.9,0
				c6.8,0.3,9.6-3.4,10.9-5.6c1.9-3.4,1.6-6.8,0.9-9c-0.3-1.2-0.6-3.1-0.6-5c-0.3-3.1-0.6-5.3-0.6-5.9l-3.7-26.1
				c-1.6-10.3-2.8-19.3-4-26.1c-0.9-5.9-3.1-10.9-6.8-14c-1.2-0.9-2.5-1.9-3.7-2.8c13.4-5.6,21.8-15.8,24.5-29.2
				c4.7-23.9,7.8-39.8,9.3-46.6c0.6-3.4,0.9-5.6,1.2-6.2v-0.6c0.6-3.1,0.6-5.9,0.6-8.7C1011.6,594.7,1008.5,588.5,1002.9,584.1z"/>
			<path class="st1" d="M1513.1,586.9c-7.5-6.2-16.2-9.3-26.7-9.3c-5.9,0-32.9,0-80.2,0c-42.6,0-69,0-81.1,0c-4,0-7.1,0.9-9.6,2.8
				c-2.8,2.2-4.4,5.3-5,9.6c-0.3,3.1-1.2,7.1-2.2,11.8c-0.6,2.8-1.6,6.8-2.5,12.4c-0.9,4-1.6,8.4,1.6,12.1s7.5,4,11.5,4h128.3
				c1.9,0,3.1,0,3.4,0c3.1,0.3,5.6,0.9,6.8,2.5c0.6,0.6,1.9,1.6,1.6,5.6c-0.3,2.8-0.6,5.9-1.2,9.3c-0.3,1.9-0.9,5-1.9,9.6
				c-5,26.1-9.3,48.5-13.1,65.9c-1.6,7.1-5,10.6-12.1,11.5c-2.2,0.3-4.7,0.3-7.1,0.3h-77.4l12.7-63.7c0.3-1.6,1.2-6.2-1.6-9.9
				c-1.6-2.5-4.7-5.3-11.2-5c-4.7,0-10.6,0-17.4,0c-7.8,0-13.7,0-17.7,0c-5.3,0-9,0.3-11.8,2.8s-4,6.2-5.3,11.2l-20.2,102.2
				c-0.3,1.9-1.6,7.1,1.9,11.2c3.4,4.4,9,4.4,10.9,4.4c23.3,0,76.4,0,158.2,0c13.7,0,26.4-5,38.2-14.6c11.5-9.6,19-21.4,21.4-34.8
				c9-45.4,15.5-79.2,20.2-101.9c1.9-9.3,2.2-10.9,2.2-11.5c0.6-5,0.6-9.6-0.3-14C1525.3,601.2,1520.6,593.1,1513.1,586.9z"/>
			<path class="st1" d="M1817.7,582c-3.4-4.4-9.3-4.4-11.2-4.4c-11.8,0-46.3,0-106,0h-103.8c-10.6,0-19.6,3.1-26.7,9
				c-7.5,5.9-12.1,14-14,24.2c-2.8,14.3-6.8,36-12.4,64.3c-1.9,10.3-0.3,18.3,4.7,24.5s13.1,9.3,23.3,9.3h120.6
				c14.3,0,22.1,0,23.9,0c2.2,0,4,0.6,5.3,1.6c1.2,0.9,2.2,2.2,2.8,4c0.9,3.7,0.6,7.1-1.2,10.9c-1.9,3.7-4.4,6.2-8.1,7.8
				c-1.6,0.6-3.7,1.2-5.9,1.2c-0.9,0-3.1,0.3-8.1,0.3h-75.2c-30.1,0-55,0-75.2,0c-4,0-7.1,0.9-9.6,3.1c-2.5,2.2-4.4,5-5,9
				c-1.9,11.2-3.4,19.9-5,25.5c-1.2,5.3-0.3,9.3,2.5,12.4c3.1,3.1,7.5,3.4,10.3,3.4c29.2,0,95.7,0,198,0c9.6,0,18-2.8,25.2-8.4
				c7.1-5.6,11.8-13.4,14-22.7c4-18.6,8.7-42,13.7-69.6c1.2-7.5-0.3-14.6-4.7-20.5c-4.4-5.6-10.6-9.3-18-10.6
				c-1.6-0.3-3.4-0.3-5.3-0.3h-4.4c-76.4,0-126.2,0-151.3,0c1.2-5.6,2.5-12.4,3.7-20.8c0.3-2.8,0.9-4.4,1.2-4.7
				c0.6-0.3,1.9-0.6,4.7-0.6c88.9,0,148.9,0,178.4,0c4.4,0,7.8-1.2,10.3-3.4s4-5.3,4.7-9.3c1.9-10.9,3.4-19,4.7-24.2
				C1820.2,591.9,1821.4,586.3,1817.7,582z"/>
			<path class="st1" d="M1125.6,478.2c4.4,7.5,10.3,12.7,17.4,16.2c6.2,2.8,13.7,4.4,21.8,4.4h159.1c0.3,0,0.3,0,0.6,0
				c3.7,0,6.5-1.6,7.8-2.8c2.2-1.9,3.7-4.4,4.4-7.8c2.2-11.5,4-20.5,5.3-27c0.3-1.6,1.6-6.8-1.6-10.9c-2.2-3.1-5.9-4.7-10.9-4.4
				c-7.1,0-39.8,0-96.3,0h-34.8c-4,0-6.8-0.9-9-3.1c-1.9-1.6-2.5-3.4-2.2-6.2c0-0.3,0.3-1.9,0.9-4.7c0.9-3.4,1.2-5.6,1.6-7.1
				c0.3-2.8,0.9-4,1.2-4.7c0.6-0.3,1.9-0.3,4.7-0.3c68.1,0,110.3,0,129.3,0c3.7,0,6.8-0.9,9.3-2.8c1.9-1.6,4.4-4,5-9
				c1.9-9.6,3.4-17.7,4.7-24.2c0.9-4,2.2-10.3-2.2-14c-2.8-2.8-6.5-3.1-11.8-3.1c-47.2,0-90.1,0-128.3,0c0.3-0.9,0.3-1.9,0.6-2.8
				l1.6-8.4c1.2-5.6,3.1-9.6,5.6-11.8c2.5-1.9,6.8-3.1,12.4-3.1c65.3,0,109.7,0,131.4,0c4.4,0,7.8-1.2,10.6-3.7c2.2-2.2,3.7-5,4.4-9
				c1.6-9.6,3.1-17.7,4.7-24.2c1.9-6.8-0.3-10.6-2.2-12.4c-3.1-3.4-7.5-3.7-10.6-3.7c-11.8,0-38.8,0-80.2,0h-77.1
				c-13.7,0-26.4,4.7-37.9,13.7s-19,20.5-21.8,34.2c-3.1,14.6-6.8,33.3-11.2,55.6c-6.8,35.1-10.6,53.8-10.9,55.6
				C1118.8,458.6,1120.3,469.2,1125.6,478.2z"/>
			<path class="st1" d="M828.6,285.5c4.7,1.2,9.6,1.9,14.9,2.2c7.8,0.6,16.2,0.3,25.5-0.9c6.2-0.9,14.3-2.2,24.2-4
				c2.8-0.6,5.3-0.6,7.5,0s4.4,1.9,6.8,4c12.7,11.5,26.7,19.3,41.6,23.3c8.4,2.2,16.8,3.4,25.5,3.4c7.5,0,14.9-0.9,22.4-2.5
				c21.4-4.7,39.8-15.8,54.1-33.3c14.3-17.4,21.8-37.3,22.7-59.4c0.3-5.9,0.9-8.4,1.2-9.3c0.6-2.2,1.9-3.7,3.7-5
				c4-2.8,9-6.5,14.3-10.6c3.1-2.5,7.5-5.9,13.7-10.9c9.6-7.8,16.8-16.2,21.1-25.8l0,0c2.8-5.9,1.9-10.9,0.9-13.7
				c-1.2-2.8-3.7-6.8-9.9-9.3c-5-1.9-10.6-3.1-17.4-3.4c-15.2-0.6-32,1.2-49.7,5.6c-2.5,0.6-4.7,0.6-6.8,0.3c-1.9-0.6-4-1.6-5.9-3.4
				c-21.1-18.6-44.7-28-69.9-27.7h-6.2c-2.8,0-5.3,0.3-7.5,0.6c-24.5,4-45.1,15.2-60.6,34.2c-15.5,18.3-23.3,40.4-23.9,65.6
				c0,3.7-1.6,6.5-4.7,9c-12.1,9.3-21.1,16.5-27,21.1c-5,4-9,7.8-12.1,10.9c-4.4,4.7-7.8,9.6-9.9,14.9c-2.8,6.5-1.9,11.8-0.3,14.9
				C818.3,279.3,821.4,283.6,828.6,285.5z"/>
			<path class="st1" d="M1511.6,498.7c2.2,0,9,0,19.9,0c8.4,0,15.5,0,20.8-0.3c5-0.3,7.8-2.5,9.6-4.7c1.2-1.9,2.2-3.7,2.8-6.5
				l6.8-34.5c7.8-39.5,13.7-69.3,17.7-89.2c0.6-2.8,1.6-3.7,1.9-3.7c0.3-0.3,1.2-0.9,4.4-0.6c0.3,0,0.6,0,1.6,0.6
				c0.3,0.3,1.2,1.2,2.8,3.7l69,107.5c5.6,8.4,11.8,15.2,18.6,19.6c7.8,5.3,16.8,8.1,27,8.4c0.6,0,1.2,0,2.2,0c1.2,0,2.8,0,4-0.3
				c0.9-0.3,2.5-0.6,4.7-0.9c15.5-2.8,29.2-9.9,40.7-20.8s18.6-24.2,21.8-39.8c3.1-15.2,5.3-26.4,6.8-33.9l19.9-99.8
				c0.9-4.4,0.3-8.1-1.9-10.9c-2.5-3.1-5.9-4.7-10.9-4.4c-13.1,0.3-25.8,0.3-37.3,0c-4,0-7.5,0.9-9.9,3.1l-0.3,0.3
				c-2.2,1.9-3.4,4.7-4,8.1c-4,21.4-7.5,39.2-10.3,52.8l-14,70.2c-0.9,4-2.2,4.4-3.4,4.7c-0.9,0.3-2.5,0.6-4.7-3.1
				c-1.6-2.5-3.7-5.9-6.2-9.6c-3.4-5.3-5.6-8.4-6.2-9.3l-60.3-91.7c-5.9-8.7-12.4-15.2-19.9-19.6l0,0c-8.4-4.7-18-6.5-28.6-5.9
				c-16.2,1.2-30.8,7.8-44.1,19.6c-13.1,11.8-21.4,25.5-24.5,41.3c-0.9,4.7-7.8,39.8-21.1,105.3c-3.4,16.5-5,25.8-5.6,28.6
				c-0.6,3.1-0.9,4.7-0.6,6.5C1500.7,494.3,1504.4,499,1511.6,498.7z"/>
			<path class="st1" d="M431.7,577.6H418c-9,0-15.8,0-20.2,0c-7.8,0-14.6,0-19.9,0c-3.7,0-6.8,0.6-9.3,2.5c-2.2,1.6-4,3.7-5.9,6.8
				c-5.3,10.9-15.5,32.3-30.8,64.3c-12.7,26.7-23.3,48.2-30.8,64.3c-0.6,1.6-1.9,2.8-3.4,4.4c0,0-0.3,0.3-0.6,0.6
				c-0.3-0.6-0.3-0.9-0.3-0.9l0,0l-5.3-53.1c-1.9-20.5-4-46-6.5-75.5c-0.3-4-1.6-6.8-3.7-9.3c-2.5-2.5-5.9-4-10.6-3.7
				c-15.5,0.3-28,0.3-37.6,0c-4.7-0.3-8.4,0.6-11.5,2.8c-2.8,1.9-5.3,5-7.1,8.7c-6.2,13.1-16.2,33.9-29.5,61.5
				c-13.1,26.7-22.7,47.2-29.5,61.5c-1.2,2.8-3.1,5.3-5,7.5c-0.9-2.2-1.6-4-1.6-5.6c-0.6-9.9-2.5-28.6-4.7-55
				c-2.8-30.1-5-53.1-6.2-68.1c-0.3-4-1.9-7.1-4-9.3c-2.5-2.2-5.6-3.1-9.6-3.1c-15.8,0.3-28.3,0.3-37.6,0c-6.2,0-9.3,2.5-11.2,4.7
				c-3.1,3.7-2.5,8.7-2.2,10.3c0.6,6.5,1.6,16.8,2.8,30.1l6.2,64.9c2.8,28.6,4.7,47.5,5.6,57.2c2.2,19.3,13.1,32.9,32,39.5
				c6.2,2.2,12.4,3.1,19.3,3.1c6.8,0,14.3-1.2,21.4-3.7c14-4.7,25.5-12.7,34.2-24.2c4.7-6.2,9.6-14.3,14.6-23.9
				c5-10.6,8.7-18.3,11.5-23.6c4-9,7.5-15.5,9.6-20.2c0.6,4,1.2,8.7,1.6,13.4c0.6,7.5,1.6,19,2.5,34.5c1.2,16.2,7.5,28.9,18.6,37.6
				c10.6,8.1,23.3,11.5,38.2,9.6c14-1.9,26.1-6.2,36.7-13.7s19-17.7,24.9-30.5l68.4-140.8c0.9-1.9,2.8-6.2,5.9-12.7L431.7,577.6z
				 M231,595.3L231,595.3L231,595.3L231,595.3z"/>
			<path class="st1" d="M962.5,361.6c-12.7,0-25.5,0-38.2,0c-3.4,0-6.5,0.6-8.7,2.5c-2.8,1.9-4.4,4.7-5.3,8.7
				c-0.6,2.8-5.3,25.2-14.6,68.1l-9,42c-0.9,4.4-1.2,8.7,1.9,12.4c3.1,3.4,7.5,3.7,11.5,3.7h17.7c2.2,0,5.3,0,9.3,0
				c3.4,0,6.2,0,8.7,0.3c0.3,0,0.6,0,1.2,0c3.4,0,6.5-0.9,9-2.8s4-5,5-8.7c9.3-43.8,17.4-81.1,23.9-110.9c1.2-6.2-0.6-9.6-2.5-11.5
				C969,361.3,964,361.3,962.5,361.6z"/>
			<path class="st1" d="M517.5,485.9c7.1,7.1,15.2,11.2,24.5,11.8c7.8,0.6,15.5,0.9,22.7,0.9c7.5,0,30.1,0,67.7,0
				c42.9,0,68.4,0,77.1,0c3.1,0,5.6-0.6,8.1-1.9c2.2-1.2,5-4,5.9-9.3c0.3-2.5,2.2-11.5,5-26.1c0.6-3.1,1.6-8.1-1.6-11.8
				c-3.1-4-8.4-4-11.5-4H603.3c-6.2,0-9.6,0-10.9,0c-4,0-7.5-0.3-10.3-0.6c-2.5-0.3-4-0.9-5-1.6c-1.2-0.9-1.9-3.1-2.2-4.7
				c0-0.6-0.3-1.6,0-3.1c0-0.6,0.3-2.5,0.9-5.3c5.3-27,13.7-69.6,25.2-127.4c0.9-4.4,0-8.1-2.2-10.6c-1.6-2.2-4.7-4.7-10.6-4.4
				c-13.1,0.3-25.8,0.3-37.3,0c-4,0-7.5,0.9-9.9,3.1l-0.3,0.3c-2.2,1.9-3.7,4.7-4.4,8.4c-2.2,11.2-6.2,32-12.4,62.5
				c-5.3,26.4-9.3,47.2-12.4,62.5c-0.6,3.7-1.9,9.3-3.4,17.1c-1.2,7.1-1.9,13.7-1.6,19.3C506.9,470.7,510.6,479.1,517.5,485.9z"/>
			<path class="st1" d="M82.7,496.2l0.3,0.3c2.8,2.2,6.2,2.5,8.4,2.5c19.6,0,32.6,0,39.5,0c3.7,0,6.8-1.2,9-3.1
				c1.9-1.9,3.1-4.4,3.7-7.8c0.9-5,2.5-13.1,4.7-24.9c1.9-9.3,3.4-16.8,4.4-22.7c21.1,0,52.2,0.3,93.2,0.3c3.7,0,6.8-0.9,9-2.8
				c2.8-1.9,4.4-5,5-9c0.9-5.3,2.5-13.7,4.7-25.2c0.9-4,1.2-8.7-1.6-12.1l-0.3-0.6c-3.1-3.1-7.1-3.4-11.5-3.4c-4.7,0-20.5,0-47.2,0
				c-16.2,0-29.8,0-41-0.3c1.2-6.2,3.7-17.7,6.8-34.5c0.9-3.7,2.2-6.5,4.7-8.7c2.5-1.9,5.3-2.8,9.3-2.8c46.6,0,82.4,0,105.7,0
				c5.3,0,6.5,1.9,7.1,2.5c0.9,1.2,2.2,3.1,1.2,7.8c-8.7,44.1-17.4,88.6-26.1,132.4c-0.3,1.6-1.2,6.5,1.9,10.6
				c2.2,2.8,5.9,4.4,10.6,4.4c14.3-0.3,27,0,37.3,0c4,0,7.5-0.9,9.9-3.1l0.3-0.3c2.2-2.2,3.7-5,4.4-8.4
				c10.8-56.4,20.7-106.4,29.1-148.4c2.8-13.7,0-25.8-7.8-35.7c-8.1-9.9-19.3-14.9-33.3-14.9h-156c-13.4,0-26.1,4.7-37.9,14.3
				c-11.5,9.3-19,20.8-21.4,34.2c-2.8,14.3-7.8,38.8-14.6,74c-6.2,31.4-11.2,55.9-14.6,74C78.4,490.6,80.6,494.3,82.7,496.2z"/>
			<path class="st1" d="M720.1,604.3c-3.4-8.4-8.7-15.2-16.2-19.9c-7.1-4.7-15.5-6.8-24.9-6.8H507.2c-13.4,0-25.8,4.7-37.3,13.7
				c-11.8,9.3-19,20.5-21.8,33.3c-2.8,13.4-6.5,31.4-10.9,54.1c-5.3,26.7-8.7,44.7-10.6,53.8c-1.2,5.6-1.9,10.3-1.9,14
				c0,5.6,0.9,10.9,2.8,15.8c3.1,8.1,8.4,14.3,15.5,19s15.2,6.8,24.5,6.8c94.5,0,151,0,170,0c9,0,17.1-1.6,23.9-4.7
				c21.1-9.3,33.9-24.2,38.2-44.1c4-20.2,11.2-55.9,21.1-106c0.9-5.3,1.6-9.9,1.6-13.7C722.9,614.3,722,609,720.1,604.3z
				 M654.5,642.2c-5.9,30.5-11.2,57.5-15.5,80.2c-0.9,4.4-2.5,7.5-5,9.6c-2.5,2.2-5.9,3.1-10.3,3.1c-37,0-77.4,0-120,0
				c-3.7,0-5.6-0.6-6.5-0.9c-1.2-0.6-2.5-1.6-3.1-2.8c-0.6-0.9-0.9-1.9-0.9-3.1V728c0-0.9,0-2.5,0.3-5c5.3-28.3,10.6-54.7,15.5-78.6
				c0.9-5.3,2.8-8.7,5.3-10.6c2.5-1.9,6.5-3.1,11.8-3.1h59.4c33.6,0,53.4,0,60.3,0c7.5,0,8.4,3.1,9,5
				C654.8,637.3,655.1,639.4,654.5,642.2z"/>
			
				<linearGradient id="SVGID_1_" gradientUnits="userSpaceOnUse" x1="1146.4327" y1="895.6821" x2="1146.4327" y2="147.3698" gradientTransform="matrix(1 0 0 1 0 -179)">
				<stop  offset="0.1296" style="stop-color:#FFFC87"/>
				<stop  offset="0.2255" style="stop-color:#FFFFFF"/>
				<stop  offset="0.3162" style="stop-color:#55FFFC"/>
				<stop  offset="0.3903" style="stop-color:#F6EDCB"/>
				<stop  offset="0.4313" style="stop-color:#7694B1"/>
				<stop  offset="0.4709" style="stop-color:#ECF8FF"/>
				<stop  offset="1" style="stop-color:#D4FFFF"/>
			</linearGradient>
			<path class="st2" d="M1243.7,716.5h-125.5c-5,0-6.2,0-6.2,0c-5.3-0.3-6.8-2.2-7.5-2.8c-0.9-0.9-1.9-2.5-1.6-6.2
				c0.3-1.6,0.6-3.4,0.9-5.3c9.6-49.4,18-92.3,25.2-128.7c0.9-4.4,0-8.1-2.2-10.9c-2.2-2.5-5.6-3.7-9.6-3.7
				c-15.8,0.3-28.6,0.3-38.2,0c-5,0-8.4,1.9-9.9,3.7c-2.2,1.9-3.4,4.7-4,8.1c-5.9,31.1-15.2,77.7-27.3,139.8
				c-1.6,8.1-1.9,10.6-2.2,11.8c-0.6,5-0.6,9.9,0.3,14c1.9,9.6,6.5,17.7,14,23.9c7.5,5.9,16.2,9,26.1,9c5.9,0,32.3,0,80.8,0
				c45.4,0,72.4,0,81.4,0h0.3c3.4,0,6.5-0.9,9-2.8c2.5-2.2,4-5,4.7-8.7c0.6-3.4,2.2-12.1,5-25.8c0.6-4,1.2-8.4-1.9-11.8
				C1252.1,716.8,1247.8,716.5,1243.7,716.5z"/>
			
				<linearGradient id="SVGID_00000124854810231006150010000015772292098612222360_" gradientUnits="userSpaceOnUse" x1="868.611" y1="895.6821" x2="868.611" y2="147.3698" gradientTransform="matrix(1 0 0 1 0 -179)">
				<stop  offset="0.1296" style="stop-color:#FFFC87"/>
				<stop  offset="0.2255" style="stop-color:#FFFFFF"/>
				<stop  offset="0.3162" style="stop-color:#55FFFC"/>
				<stop  offset="0.3903" style="stop-color:#F6EDCB"/>
				<stop  offset="0.4313" style="stop-color:#7694B1"/>
				<stop  offset="0.4709" style="stop-color:#ECF8FF"/>
				<stop  offset="1" style="stop-color:#D4FFFF"/>
			</linearGradient>
			<path style="fill:url(#SVGID_00000124854810231006150010000015772292098612222360_);" d="M1006,565.5c-5-4-11.5-6.2-19-6.2H880.1
				c-56.2,0-91.4,0-107.2,0c-4,0-7.1,0.9-9.6,2.8c-2.8,2.2-4.4,5.3-5,9.3c-1.6,9.3-3.1,17.7-5,25.2c-1.2,5.3-0.3,9.6,2.5,12.1
				c3.1,3.1,7.1,3.4,10.3,3.4c16.2,0,52.2,0,110.3,0c32.6,0,52.2,0,58.7,0c3.1,0,5.3,0.6,6.8,2.2c0.9,0.9,2.2,2.2,2.2,5.6
				c0,4.4-0.9,8.4-2.8,11.5c-1.6,2.5-3.4,4-5.6,5c-2.5,0.9-5.6,1.6-9.3,1.6c-62.2,0-119,0-168.7,0c-3.7,0-6.5,0.6-9,2.5
				c-2.8,1.9-4.7,5-5.6,9.3c-5,26.4-11.8,61.8-20.5,105.3c-0.3,1.6-1.2,6.2,1.6,9.9c1.6,2.2,4.4,4.7,9.9,4.7h0.3
				c13.1,0,26.1,0,39.2,0c5,0,7.8-1.9,9.3-3.4c1.9-1.9,3.1-4.4,3.7-7.8c0.6-4,5-25.8,12.7-65.6c0.3-1.2,0.3-1.6,0.6-1.9
				c0.3,0,0.6-0.3,1.6-0.3c63.1,0,101,0,113.4,0c4.7,0,6.2,1.2,6.5,1.2c0.9,0.6,1.9,2.8,2.5,6.8c1.9,13.1,4.7,32.9,8.1,59.4
				c0.3,3.1,1.6,5.6,3.1,7.5c1.6,1.6,4.4,3.4,9,3.4c17.1,0,31.7,0,42.9,0c6.8,0.3,9.6-3.4,10.9-5.6c1.9-3.4,1.6-6.8,0.9-9
				c-0.3-1.2-0.6-3.1-0.6-5c-0.3-3.1-0.6-5.3-0.6-5.9l-3.7-26.1c-1.6-10.3-2.8-19.3-4-26.1c-0.9-5.9-3.1-10.9-6.8-14
				c-1.2-0.9-2.5-1.9-3.7-2.8c13.4-5.6,21.8-15.8,24.5-29.2c4.7-23.9,7.8-39.8,9.3-46.6c0.6-3.4,0.9-5.6,1.2-6.2v-0.6
				c0.6-3.1,0.6-5.9,0.6-8.7C1014.7,576.1,1011.6,569.8,1006,565.5z"/>
			
				<linearGradient id="SVGID_00000155845647672170574740000005256880434290933418_" gradientUnits="userSpaceOnUse" x1="1403.4669" y1="895.6821" x2="1403.4669" y2="147.3698" gradientTransform="matrix(1 0 0 1 0 -179)">
				<stop  offset="0.1296" style="stop-color:#FFFC87"/>
				<stop  offset="0.2255" style="stop-color:#FFFFFF"/>
				<stop  offset="0.3162" style="stop-color:#55FFFC"/>
				<stop  offset="0.3903" style="stop-color:#F6EDCB"/>
				<stop  offset="0.4313" style="stop-color:#7694B1"/>
				<stop  offset="0.4709" style="stop-color:#ECF8FF"/>
				<stop  offset="1" style="stop-color:#D4FFFF"/>
			</linearGradient>
			<path style="fill:url(#SVGID_00000155845647672170574740000005256880434290933418_);" d="M1516.3,568.3
				c-7.5-6.2-16.2-9.3-26.7-9.3c-5.9,0-32.9,0-80.2,0c-42.6,0-69,0-81.1,0c-4,0-7.1,0.9-9.6,2.8c-2.8,2.2-4.4,5.3-5,9.6
				c-0.3,3.1-1.2,7.1-2.2,11.8c-0.6,2.8-1.6,6.8-2.5,12.4c-0.9,4-1.6,8.4,1.6,12.1c3.1,3.7,7.5,4,11.5,4h128.3c1.9,0,3.1,0,3.4,0
				c3.1,0.3,5.6,0.9,6.8,2.5c0.6,0.6,1.9,1.6,1.6,5.6c-0.3,2.8-0.6,5.9-1.2,9.3c-0.3,1.9-0.9,5-1.9,9.6c-5,26.1-9.3,48.5-13.1,65.9
				c-1.6,7.1-5,10.6-12.1,11.5c-2.2,0.3-4.7,0.3-7.1,0.3h-77.4l12.7-63.7c0.3-1.6,1.2-6.2-1.6-9.9c-1.6-2.5-4.7-5.3-11.2-5
				c-4.7,0-10.6,0-17.4,0c-7.8,0-13.7,0-17.7,0c-5.3,0-9,0.3-11.8,2.8s-4,6.2-5.3,11.2L1277,754.1c-0.3,1.9-1.6,7.1,1.9,11.2
				c3.4,4.4,9,4.4,10.9,4.4c23.3,0,76.4,0,158.2,0c13.7,0,26.4-5,38.2-14.6c11.5-9.6,19-21.4,21.4-34.8c9-45.4,15.5-79.2,20.2-101.9
				c1.9-9.3,2.2-10.9,2.2-11.5c0.6-5,0.6-9.6-0.3-14C1528.4,582.6,1523.7,574.5,1516.3,568.3z"/>
			
				<linearGradient id="SVGID_00000053525729550717291610000000806354645572668338_" gradientUnits="userSpaceOnUse" x1="1678.3602" y1="895.6821" x2="1678.3602" y2="147.3698" gradientTransform="matrix(1 0 0 1 0 -179)">
				<stop  offset="0.1296" style="stop-color:#FFFC87"/>
				<stop  offset="0.2255" style="stop-color:#FFFFFF"/>
				<stop  offset="0.3162" style="stop-color:#55FFFC"/>
				<stop  offset="0.3903" style="stop-color:#F6EDCB"/>
				<stop  offset="0.4313" style="stop-color:#7694B1"/>
				<stop  offset="0.4709" style="stop-color:#ECF8FF"/>
				<stop  offset="1" style="stop-color:#D4FFFF"/>
			</linearGradient>
			<path style="fill:url(#SVGID_00000053525729550717291610000000806354645572668338_);" d="M1820.8,563.3
				c-3.4-4.4-9.3-4.4-11.2-4.4c-11.8,0-46.3,0-106,0h-103.8c-10.6,0-19.6,3.1-26.7,9c-7.5,5.9-12.1,14-14,24.2
				c-2.8,14.3-6.8,36-12.4,64.3c-1.9,10.3-0.3,18.3,4.7,24.5s13.1,9.3,23.3,9.3h120.6c14.3,0,22.1,0,23.9,0c2.2,0,4,0.6,5.3,1.6
				c1.2,0.9,2.2,2.2,2.8,4c0.9,3.7,0.6,7.1-1.2,10.9c-1.9,3.7-4.4,6.2-8.1,7.8c-1.6,0.6-3.7,1.2-5.9,1.2c-0.9,0-3.1,0.3-8.1,0.3
				h-75.2c-30.1,0-55,0-75.2,0c-4,0-7.1,0.9-9.6,3.1c-2.5,2.2-4.4,5-5,9c-1.9,11.2-3.4,19.9-5,25.5c-1.2,5.3-0.3,9.3,2.5,12.4
				c3.1,3.1,7.5,3.4,10.3,3.4c29.2,0,95.7,0,198,0c9.6,0,18-2.8,25.2-8.4c7.1-5.6,11.8-13.4,14-22.7c4-18.6,8.7-42,13.7-69.6
				c1.2-7.5-0.3-14.6-4.7-20.5c-4.4-5.6-10.6-9.3-18-10.6c-1.6-0.3-3.4-0.3-5.3-0.3h-4.4c-76.4,0-126.2,0-151.3,0
				c1.2-5.6,2.5-12.4,3.7-20.8c0.3-2.8,0.9-4.4,1.2-4.7c0.6-0.3,1.9-0.6,4.7-0.6c88.9,0,148.9,0,178.4,0c4.4,0,7.8-1.2,10.3-3.4
				s4-5.3,4.7-9.3c1.9-10.9,3.4-19,4.7-24.2C1823.3,573.3,1824.5,567.7,1820.8,563.3z"/>
			
				<linearGradient id="SVGID_00000172413108926812008770000001272987330407308967_" gradientUnits="userSpaceOnUse" x1="1249.9343" y1="895.6821" x2="1249.9343" y2="147.3698" gradientTransform="matrix(1 0 0 1 0 -179)">
				<stop  offset="0.1296" style="stop-color:#FFFC87"/>
				<stop  offset="0.2255" style="stop-color:#FFFFFF"/>
				<stop  offset="0.3162" style="stop-color:#55FFFC"/>
				<stop  offset="0.3903" style="stop-color:#F6EDCB"/>
				<stop  offset="0.4313" style="stop-color:#7694B1"/>
				<stop  offset="0.4709" style="stop-color:#ECF8FF"/>
				<stop  offset="1" style="stop-color:#D4FFFF"/>
			</linearGradient>
			<path style="fill:url(#SVGID_00000172413108926812008770000001272987330407308967_);" d="M1128.7,459.5
				c4.4,7.5,10.3,12.7,17.4,16.2c6.2,2.8,13.7,4.4,21.8,4.4H1327c0.3,0,0.3,0,0.6,0c3.7,0,6.5-1.6,7.8-2.8c2.2-1.9,3.7-4.4,4.4-7.8
				c2.2-11.5,4-20.5,5.3-27c0.3-1.6,1.6-6.8-1.6-10.9c-2.2-3.1-5.9-4.7-10.9-4.4c-7.1,0-39.8,0-96.3,0h-34.8c-4,0-6.8-0.9-9-3.1
				c-1.9-1.6-2.5-3.4-2.2-6.2c0-0.3,0.3-1.9,0.9-4.7c0.9-3.4,1.2-5.6,1.6-7.1c0.3-2.8,0.9-4,1.2-4.7c0.6-0.3,1.9-0.3,4.7-0.3
				c68.1,0,110.3,0,129.3,0c3.7,0,6.8-0.9,9.3-2.8c1.9-1.6,4.4-4,5-9c1.9-9.6,3.4-17.7,4.7-24.2c0.9-4,2.2-10.3-2.2-14
				c-2.8-2.8-6.5-3.1-11.8-3.1c-47.2,0-90.1,0-128.3,0c0.3-0.9,0.3-1.9,0.6-2.8l1.6-8.4c1.2-5.6,3.1-9.6,5.6-11.8
				c2.5-1.9,6.8-3.1,12.4-3.1c65.3,0,109.7,0,131.4,0c4.4,0,7.8-1.2,10.6-3.7c2.2-2.2,3.7-5,4.4-9c1.6-9.6,3.1-17.7,4.7-24.2
				c1.9-6.8-0.3-10.6-2.2-12.4c-3.1-3.4-7.5-3.7-10.6-3.7c-11.8,0-38.8,0-80.2,0h-77.1c-13.7,0-26.4,4.7-37.9,13.7
				s-19,20.5-21.8,34.2c-3.1,14.6-6.8,33.3-11.2,55.6c-6.8,35.1-10.6,53.8-10.9,55.6C1121.9,439.9,1123.5,450.5,1128.7,459.5z"/>
			
				<linearGradient id="SVGID_00000018237888042795913970000003418609796657306511_" gradientUnits="userSpaceOnUse" x1="975.6337" y1="895.6821" x2="975.6337" y2="147.3698" gradientTransform="matrix(1 0 0 1 0 -179)">
				<stop  offset="0.1296" style="stop-color:#FFFC87"/>
				<stop  offset="0.2255" style="stop-color:#FFFFFF"/>
				<stop  offset="0.3162" style="stop-color:#55FFFC"/>
				<stop  offset="0.3903" style="stop-color:#F6EDCB"/>
				<stop  offset="0.4313" style="stop-color:#7694B1"/>
				<stop  offset="0.4709" style="stop-color:#ECF8FF"/>
				<stop  offset="1" style="stop-color:#D4FFFF"/>
			</linearGradient>
			<path style="fill:url(#SVGID_00000018237888042795913970000003418609796657306511_);" d="M831.7,263.4c4.7,1.2,9.6,1.9,14.9,2.2
				c7.8,0.6,16.2,0.3,25.5-0.9c6.2-0.9,14.3-2.2,24.2-4c2.8-0.6,5.3-0.6,7.5,0s4.4,1.9,6.8,4c12.7,11.5,26.7,19.3,41.6,23.3
				c8.4,2.2,16.8,3.4,25.5,3.4c7.5,0,14.9-0.9,22.4-2.5c21.4-4.7,39.8-15.8,54.1-33.3c14.3-17.4,21.8-37.3,22.7-59.4
				c0.3-5.9,0.9-8.4,1.2-9.3c0.6-2.2,1.9-3.7,3.7-5c4-2.8,9-6.5,14.3-10.6c3.1-2.5,7.5-5.9,13.7-10.9c9.6-7.8,16.8-16.2,21.1-25.8
				l0,0c2.8-5.9,1.9-10.9,0.9-13.7c-1.2-2.8-3.7-6.8-9.9-9.3c-5-1.9-10.6-3.1-17.4-3.4c-15.2-0.6-32,1.2-49.7,5.6
				c-2.5,0.6-4.7,0.6-6.8,0.3c-1.9-0.6-4-1.6-5.9-3.4c-21.1-18.6-44.7-28-69.9-27.7H966c-2.8,0-5.3,0.3-7.5,0.6
				c-24.5,4-45.1,15.2-60.6,34.2c-15.5,18.3-23.3,40.4-23.9,65.6c0,3.7-1.6,6.5-4.7,9c-12.1,9.3-21.1,16.5-27,21.1
				c-5,4-9,7.8-12.1,10.9c-4.4,4.7-7.8,9.6-9.9,14.9c-2.8,6.5-1.9,11.8-0.3,14.9C821.4,257.5,824.5,261.9,831.7,263.4z"/>
			
				<linearGradient id="SVGID_00000065781015523470168620000005017455257774704558_" gradientUnits="userSpaceOnUse" x1="1660.9424" y1="895.6821" x2="1660.9424" y2="147.3698" gradientTransform="matrix(1 0 0 1 0 -179)">
				<stop  offset="0.1296" style="stop-color:#FFFC87"/>
				<stop  offset="0.2255" style="stop-color:#FFFFFF"/>
				<stop  offset="0.3162" style="stop-color:#55FFFC"/>
				<stop  offset="0.3903" style="stop-color:#F6EDCB"/>
				<stop  offset="0.4313" style="stop-color:#7694B1"/>
				<stop  offset="0.4709" style="stop-color:#ECF8FF"/>
				<stop  offset="1" style="stop-color:#D4FFFF"/>
			</linearGradient>
			<path style="fill:url(#SVGID_00000065781015523470168620000005017455257774704558_);" d="M1514.7,480c2.2,0,9,0,19.9,0
				c8.4,0,15.5,0,20.8-0.3c5-0.3,7.8-2.5,9.6-4.7c1.2-1.9,2.2-3.7,2.8-6.5l6.8-34.5c7.8-39.5,13.7-69.3,17.7-89.2
				c0.6-2.8,1.6-3.7,1.9-3.7c0.3-0.3,1.2-0.9,4.4-0.6c0.3,0,0.6,0,1.6,0.6c0.3,0.3,1.2,1.2,2.8,3.7l69,107.5
				c5.6,8.4,11.8,15.2,18.6,19.6c7.8,5.3,16.8,8.1,27,8.4c0.6,0,1.2,0,2.2,0c1.2,0,2.8,0,4-0.3c0.9-0.3,2.5-0.6,4.7-0.9
				c15.5-2.8,29.2-9.9,40.7-20.8s18.6-24.2,21.8-39.8c3.1-15.2,5.3-26.4,6.8-33.9l19.9-99.8c0.9-4.4,0.3-8.1-1.9-10.9
				c-2.5-3.1-5.9-4.7-10.9-4.4c-13.1,0.3-25.8,0.3-37.3,0c-4,0-7.5,0.9-9.9,3.1l-0.3,0.3c-2.2,1.9-3.4,4.7-4,8.1
				c-4,21.4-7.5,39.2-10.3,52.8l-14,70.2c-0.9,4-2.2,4.4-3.4,4.7c-0.9,0.3-2.5,0.6-4.7-3.1c-1.6-2.5-3.7-5.9-6.2-9.6
				c-3.4-5.3-5.6-8.4-6.2-9.3l-60.3-91.7c-5.9-8.7-12.4-15.2-19.9-19.6l0,0c-8.4-4.7-18-6.5-28.6-5.9c-16.2,1.2-30.8,7.8-44.1,19.6
				c-13.1,11.8-21.4,25.5-24.5,41.3c-0.9,4.7-7.8,39.8-21.1,105.3c-3.4,16.5-5,25.8-5.6,28.6c-0.6,3.1-0.9,4.7-0.6,6.5
				C1503.8,475.7,1507.6,480.3,1514.7,480z"/>
			
				<linearGradient id="SVGID_00000161627885442578087620000004126236581347475111_" gradientUnits="userSpaceOnUse" x1="255.523" y1="895.6821" x2="255.523" y2="147.3698" gradientTransform="matrix(1 0 0 1 0 -179)">
				<stop  offset="0.1296" style="stop-color:#FFFC87"/>
				<stop  offset="0.2255" style="stop-color:#FFFFFF"/>
				<stop  offset="0.3162" style="stop-color:#55FFFC"/>
				<stop  offset="0.3903" style="stop-color:#F6EDCB"/>
				<stop  offset="0.4313" style="stop-color:#7694B1"/>
				<stop  offset="0.4709" style="stop-color:#ECF8FF"/>
				<stop  offset="1" style="stop-color:#D4FFFF"/>
			</linearGradient>
			<path style="fill:url(#SVGID_00000161627885442578087620000004126236581347475111_);" d="M434.8,559h-13.7c-9,0-15.8,0-20.2,0
				c-7.8,0-14.6,0-19.9,0c-3.7,0-6.8,0.6-9.3,2.5c-2.2,1.6-4,3.7-5.9,6.8c-5.3,10.9-15.5,32.3-30.8,64.3
				c-12.7,26.7-23.3,48.2-30.8,64.3c-0.6,1.6-1.9,2.8-3.4,4.4c0,0-0.3,0.3-0.6,0.6c-0.3-0.6-0.3-0.9-0.3-0.9l0,0l-5.3-53.1
				c-1.9-20.5-4-46-6.5-75.5c-0.3-4-1.6-6.8-3.7-9.3c-2.5-2.5-5.9-4-10.6-3.7c-15.5,0.3-28,0.3-37.6,0c-4.7-0.3-8.4,0.6-11.5,2.8
				c-2.8,1.9-5.3,5-7.1,8.7c-6.2,13.1-16.2,33.9-29.5,61.5c-13.1,26.7-22.7,47.2-29.5,61.5c-1.2,2.8-3.1,5.3-5,7.5
				c-0.9-2.2-1.6-4-1.6-5.6c-0.6-9.9-2.5-28.6-4.7-55c-2.8-30.1-5-53.1-6.2-68.1c-0.3-4-1.9-7.1-4-9.3c-2.5-2.2-5.6-3.1-9.6-3.1
				c-15.8,0.3-28.3,0.3-37.6,0c-6.2,0-9.3,2.5-11.2,4.7c-3.1,3.7-2.5,8.7-2.2,10.3c0.6,6.5,1.6,16.8,2.8,30.1l6.2,64.9
				c2.8,28.6,4.7,47.5,5.6,57.2c2.2,19.3,13.1,32.9,32,39.5c6.2,2.2,12.4,3.1,19.3,3.1s14.3-1.2,21.4-3.7
				c14-4.7,25.5-12.7,34.2-24.2c4.7-6.2,9.6-14.3,14.6-23.9c5-10.6,8.7-18.3,11.5-23.6c4-9,7.5-15.5,9.6-20.2
				c0.6,4,1.2,8.7,1.6,13.4c0.6,7.5,1.6,19,2.5,34.5c1.2,16.2,7.5,28.9,18.6,37.6c10.6,8.1,23.3,11.5,38.2,9.6
				c14-1.9,26.1-6.2,36.7-13.7s19-17.7,24.9-30.5l68.4-140.8c0.9-1.9,2.8-6.2,5.9-12.7L434.8,559z M234.1,576.7L234.1,576.7
				L234.1,576.7L234.1,576.7z"/>
			
				<linearGradient id="SVGID_00000034802008513229571040000000320624474922817197_" gradientUnits="userSpaceOnUse" x1="933.7872" y1="895.6821" x2="933.7872" y2="147.3698" gradientTransform="matrix(1 0 0 1 0 -179)">
				<stop  offset="0.1296" style="stop-color:#FFFC87"/>
				<stop  offset="0.2255" style="stop-color:#FFFFFF"/>
				<stop  offset="0.3162" style="stop-color:#55FFFC"/>
				<stop  offset="0.3903" style="stop-color:#F6EDCB"/>
				<stop  offset="0.4313" style="stop-color:#7694B1"/>
				<stop  offset="0.4709" style="stop-color:#ECF8FF"/>
				<stop  offset="1" style="stop-color:#D4FFFF"/>
			</linearGradient>
			<path style="fill:url(#SVGID_00000034802008513229571040000000320624474922817197_);" d="M965.6,343c-12.7,0-25.5,0-38.2,0
				c-3.4,0-6.5,0.6-8.7,2.5c-2.8,1.9-4.4,4.7-5.3,8.7c-0.6,2.8-5.3,25.2-14.6,68.1l-9,42c-0.9,4.4-1.2,8.7,1.9,12.4
				c3.1,3.4,7.5,3.7,11.5,3.7h17.7c2.2,0,5.3,0,9.3,0c3.4,0,6.2,0,8.7,0.3c0.3,0,0.6,0,1.2,0c3.4,0,6.5-0.9,9-2.8s4-5,5-8.7
				c9.3-43.8,17.4-81.1,23.9-110.9c1.2-6.2-0.6-9.6-2.5-11.5C972.1,342.7,967.1,342.7,965.6,343z"/>
			
				<linearGradient id="SVGID_00000124850029427998426340000002164340165039665807_" gradientUnits="userSpaceOnUse" x1="620.8824" y1="895.6821" x2="620.8824" y2="147.3698" gradientTransform="matrix(1 0 0 1 0 -179)">
				<stop  offset="0.1296" style="stop-color:#FFFC87"/>
				<stop  offset="0.2255" style="stop-color:#FFFFFF"/>
				<stop  offset="0.3162" style="stop-color:#55FFFC"/>
				<stop  offset="0.3903" style="stop-color:#F6EDCB"/>
				<stop  offset="0.4313" style="stop-color:#7694B1"/>
				<stop  offset="0.4709" style="stop-color:#ECF8FF"/>
				<stop  offset="1" style="stop-color:#D4FFFF"/>
			</linearGradient>
			<path style="fill:url(#SVGID_00000124850029427998426340000002164340165039665807_);" d="M520.6,467.3
				c7.1,7.1,15.2,11.2,24.5,11.8c7.8,0.6,15.5,0.9,22.7,0.9c7.5,0,30.1,0,67.7,0c42.9,0,68.4,0,77.1,0c3.1,0,5.6-0.6,8.1-1.9
				c2.2-1.2,5-4,5.9-9.3c0.3-2.5,2.2-11.5,5-26.1c0.6-3.1,1.6-8.1-1.6-11.8c-3.1-4-8.4-4-11.5-4H606.4c-6.2,0-9.6,0-10.9,0
				c-4,0-7.5-0.3-10.3-0.6c-2.5-0.3-4-0.9-5-1.6c-1.2-0.9-1.9-3.1-2.2-4.7c0-0.6-0.3-1.6,0-3.1c0-0.6,0.3-2.5,0.9-5.3
				c5.3-27,13.7-69.6,25.2-127.4c0.9-4.4,0-8.1-2.2-10.6c-1.6-2.2-4.7-4.7-10.6-4.4c-13.1,0.3-25.8,0.3-37.3,0c-4,0-7.5,0.9-9.9,3.1
				l-0.3,0.3c-2.2,1.9-3.7,4.7-4.4,8.4c-2.2,11.2-6.2,32-12.4,62.5c-5.3,26.4-9.3,47.2-12.4,62.5c-0.6,3.7-1.9,9.3-3.4,17.1
				c-1.2,7.1-1.9,13.7-1.6,19.3C510,452.1,513.8,460.5,520.6,467.3z"/>
			
				<linearGradient id="SVGID_00000134210627268587882200000002159679205992876204_" gradientUnits="userSpaceOnUse" x1="225.9352" y1="895.6821" x2="225.9352" y2="147.3698" gradientTransform="matrix(1 0 0 1 0 -179)">
				<stop  offset="0.1296" style="stop-color:#FFFC87"/>
				<stop  offset="0.2255" style="stop-color:#FFFFFF"/>
				<stop  offset="0.3162" style="stop-color:#55FFFC"/>
				<stop  offset="0.3903" style="stop-color:#F6EDCB"/>
				<stop  offset="0.4313" style="stop-color:#7694B1"/>
				<stop  offset="0.4709" style="stop-color:#ECF8FF"/>
				<stop  offset="1" style="stop-color:#D4FFFF"/>
			</linearGradient>
			<path style="fill:url(#SVGID_00000134210627268587882200000002159679205992876204_);" d="M85.8,477.5l0.3,0.3
				c2.8,2.2,6.2,2.5,8.4,2.5c19.6,0,32.6,0,39.5,0c3.7,0,6.8-1.2,9-3.1c1.9-1.9,3.1-4.4,3.7-7.8c0.9-5,2.5-13.1,4.7-24.9
				c1.9-9.3,3.4-16.8,4.4-22.7c21.1,0,52.2,0.3,93.2,0.3c3.7,0,6.8-0.9,9-2.8c2.8-1.9,4.4-5,5-9c0.9-5.3,2.5-13.7,4.7-25.2
				c0.9-4,1.2-8.7-1.6-12.1l-0.3-0.6c-3.1-3.1-7.1-3.4-11.5-3.4c-4.7,0-20.5,0-47.2,0c-16.2,0-29.8,0-41-0.3
				c1.2-6.2,3.7-17.7,6.8-34.5c0.9-3.7,2.2-6.5,4.7-8.7c2.5-1.9,5.3-2.8,9.3-2.8c46.6,0,82.4,0,105.7,0c5.3,0,6.5,1.9,7.1,2.5
				c0.9,1.2,2.2,3.1,1.2,7.8c-8.7,44.1-17.4,88.6-26.1,132.4c-0.3,1.6-1.2,6.5,1.9,10.6c2.2,2.8,5.9,4.4,10.6,4.4
				c14.3-0.3,27,0,37.3,0c4,0,7.5-0.9,9.9-3.1l0.3-0.3c2.2-2.2,3.7-5,4.4-8.4c10.9-56.2,20.8-106.3,29.2-148.2
				c2.8-13.7,0-25.8-7.8-35.7c-8.1-9.9-19.3-14.9-33.3-14.9h-156c-13.4,0-26.1,4.7-37.9,14.3c-11.5,9.3-19,20.8-21.4,34.2
				c-2.8,14.3-7.8,38.8-14.6,74c-6.2,31.4-11.2,55.9-14.6,74C81.5,472,83.7,475.7,85.8,477.5z"/>
			
				<linearGradient id="SVGID_00000146463530236834772860000015537312636562010559_" gradientUnits="userSpaceOnUse" x1="576.6921" y1="895.6821" x2="576.6921" y2="147.3698" gradientTransform="matrix(1 0 0 1 0 -179)">
				<stop  offset="0.1296" style="stop-color:#FFFC87"/>
				<stop  offset="0.2255" style="stop-color:#FFFFFF"/>
				<stop  offset="0.3162" style="stop-color:#55FFFC"/>
				<stop  offset="0.3903" style="stop-color:#F6EDCB"/>
				<stop  offset="0.4313" style="stop-color:#7694B1"/>
				<stop  offset="0.4709" style="stop-color:#ECF8FF"/>
				<stop  offset="1" style="stop-color:#D4FFFF"/>
			</linearGradient>
			<path style="fill:url(#SVGID_00000146463530236834772860000015537312636562010559_);" d="M723.2,585.7
				c-3.4-8.4-8.7-15.2-16.2-19.9c-7.1-4.7-15.5-6.8-24.9-6.8H510.3c-13.4,0-25.8,4.7-37.3,13.7c-11.8,9.3-19,20.5-21.8,33.3
				c-2.8,13.4-6.5,31.4-10.9,54.1c-5.3,26.7-8.7,44.7-10.6,53.8c-1.2,5.6-1.9,10.3-1.9,14c0,5.6,0.9,10.9,2.8,15.8
				c3.1,8.1,8.4,14.3,15.5,19s15.2,6.8,24.5,6.8c94.5,0,151,0,170,0c9,0,17.1-1.6,23.9-4.7c21.1-9.3,33.9-24.2,38.2-44.1
				c4-20.2,11.2-55.9,21.1-106c0.9-5.3,1.6-9.9,1.6-13.7C726,595.6,725.1,590.3,723.2,585.7z M657.6,623.6
				c-5.9,30.5-11.2,57.5-15.5,80.2c-0.9,4.4-2.5,7.5-5,9.6c-2.5,2.2-5.9,3.1-10.3,3.1c-37,0-77.4,0-120,0c-3.7,0-5.6-0.6-6.5-0.9
				c-1.2-0.6-2.5-1.6-3.1-2.8c-0.6-0.9-0.9-1.9-0.9-3.1v-0.3c0-0.9,0-2.5,0.3-5c5.3-28.3,10.6-54.7,15.5-78.6
				c0.9-5.3,2.8-8.7,5.3-10.6c2.5-1.9,6.5-3.1,11.8-3.1h59.4c33.6,0,53.4,0,60.3,0c7.5,0,8.4,3.1,9,5
				C658.3,618.6,658.3,620.8,657.6,623.6z"/>
			
				<linearGradient id="SVGID_00000009571577398028178640000004095551321065876374_" gradientUnits="userSpaceOnUse" x1="949.975" y1="945.9813" x2="949.975" y2="251.2393" gradientTransform="matrix(1 0 0 1 0 -179)">
				<stop  offset="0" style="stop-color:#FF7400"/>
				<stop  offset="0.1629" style="stop-color:#FFB900"/>
				<stop  offset="0.3226" style="stop-color:#68DB34"/>
				<stop  offset="0.4558" style="stop-color:#00F3FF"/>
				<stop  offset="0.6552" style="stop-color:#2B93F1"/>
				<stop  offset="1" style="stop-color:#00E662"/>
			</linearGradient>
			<path style="fill:url(#SVGID_00000009571577398028178640000004095551321065876374_);" d="M702.4,582.6
				c-5.6-3.7-12.4-5.6-20.2-5.6h-84.8l0,0h-87c-11.2,0-22.1,4-32,11.8s-16.2,17.4-18.6,28.3c-2.8,13.4-6.5,31.4-10.9,53.8
				c-5.3,26.7-8.7,44.7-10.6,53.8c-0.9,5-1.6,9.3-1.6,12.4c0,4.4,0.6,8.7,2.2,12.4c2.5,6.2,6.5,11.2,12.1,14.9s12.1,5.3,19.9,5.3
				c94.5,0,151,0,170,0c7.8,0,14.6-1.2,20.2-3.7c18.6-8.1,29.5-20.8,32.9-37.9c4-20.2,11.2-55.6,21.1-106c0.9-5,1.6-9,1.6-12.1
				c0-4.4-0.6-8.4-1.9-12.1C712.3,591.6,708.3,586.3,702.4,582.6 M648.6,612.4c9,0,14.9,3.7,17.4,11.2c0.9,3.1,1.2,6.8,0.3,10.9
				c-5.9,30.5-11.2,57.2-15.5,80.2c-1.2,6.5-4,11.2-8.1,14.9c-4,3.4-9.3,5.3-15.8,5.3c-37.3,0-77.4,0-120,0c-4,0-7.5-0.6-9.9-1.6
				c-3.4-1.2-5.9-3.4-7.5-6.8c-1.2-2.2-1.9-4.7-1.9-7.1l0,0c0-2.2,0-4.4,0.6-7.1c5.3-28.3,10.6-54.7,15.5-78.9
				c1.6-7.1,4.4-12.4,8.4-15.8c4-3.1,9.9-5,17.4-5H589C621.9,612.4,641.8,612.4,648.6,612.4 M229.4,578.5c-1.6,0.9-2.8,2.8-4,5.3
				c-6.2,13.1-16.2,33.6-29.5,61.5c-13.1,26.7-22.7,47.2-29.5,61.5c-3.1,6.5-7.5,11.5-13.4,15.5c-0.9,0.6-1.6,0.9-1.6,0.9
				c-0.6,0.3-1.2-0.3-1.6-0.9c-1.9-3.4-3.4-6.2-4-8.1c-1.6-3.1-2.2-6.2-2.5-9c-0.6-9.9-2.5-28.3-4.7-54.7c-2.8-30.1-5-52.8-6.2-68.1
				c0-1.9-0.6-2.8-1.2-3.4c-0.6-0.6-1.9-0.9-3.4-0.9c-15.8,0.3-28.6,0.3-37.9,0c-1.9,0-3.4,0.3-4,1.2c-0.6,0.6-0.6,2.2-0.6,4
				c0.6,6.8,1.6,16.8,2.8,30.5l6.2,64.9c2.8,28.6,4.7,47.5,5.6,57.2c1.9,15.8,10.3,26.7,26.1,32.3c10.9,3.7,22.7,3.7,34.8-0.3
				c12.4-4,22.4-11.2,29.8-21.1c4.7-5.9,9-13.4,13.7-22.4c5-10.6,8.7-18.3,11.5-23.6c4.4-9.3,7.8-16.5,9.9-21.1
				c4-8.1,7.5-15.2,10.9-20.8c0.6,0.3,0.9,0.9,0.9,1.6c0,0,0,0.6,0.3,1.9c2.5,9.6,4.4,20.8,5.6,34.2c0.6,7.8,1.6,19.3,2.5,34.5
				c1.2,13.7,6.2,24.2,15.2,31.4c8.7,6.8,19.3,9.3,31.7,7.8c12.4-1.6,23.3-5.6,32.6-12.1c9.3-6.5,16.8-15.5,22.1-27l68.4-140.8
				c0.9-1.9,2.8-5.9,5.9-12.4c-9,0-15.8,0-20.2,0c-8.1,0-14.6,0-20.2,0c-1.9,0-3.1,0.3-4.4,0.9c-0.9,0.6-1.9,1.9-2.8,3.4
				c-5.3,10.9-15.5,32.3-30.8,64.3c-13.1,26.7-23.3,48.2-30.8,64.3c-1.2,2.8-3.1,5-5.6,7.1c-1.2,1.2-3.7,2.8-7.1,5
				c-0.6,0.3-0.9,0.6-1.2,0.6c-0.3,0-0.9-0.3-1.2-0.6c-1.6-2.2-2.8-4-3.4-5c-1.2-2.2-2.2-4-2.2-5.9l-5.3-53.4
				c-1.9-20.5-4-45.7-6.5-75.5c-0.3-1.9-0.6-3.1-1.2-4s-2.2-1.2-4-1.2c-15.5,0.3-28.3,0.3-37.9,0C233.1,577,231,577.3,229.4,578.5
				 M594.9,288.9c-0.6-0.6-1.9-0.9-3.7-0.9c-13.4,0.3-25.8,0.3-37.6,0c-1.9,0-3.1,0.3-4,0.9c-0.6,0.6-1.2,1.9-1.6,3.7
				c-2.2,11.2-6.2,32.3-12.4,62.5c-5.3,26.4-9.3,47.2-12.4,62.5c-0.6,3.7-1.9,9.3-3.4,16.8c-1.2,6.5-1.9,12.4-1.6,17.1
				c0.3,7.1,3.1,13.4,8.7,19c5.6,5.6,11.8,8.7,18.6,9.3c7.8,0.6,14.9,0.9,22.1,0.9c7.5,0,30.1,0,67.7,0c42.9,0,68.4,0,77.1,0
				c1.6,0,2.8-0.3,3.4-0.6c0.9-0.6,1.6-1.6,1.9-3.1c0.3-2.5,2.2-11.5,5-26.4c0.6-2.5,0.6-4,0.3-4.7c-0.3-0.3-1.9-0.6-4.7-0.6H606
				c-6.2,0-9.9,0-11.2,0c-4.4,0-7.8-0.3-11.2-0.6c-4.4-0.3-7.5-1.9-9.9-3.7c-2.5-2.2-4-5.3-5-9.3c-0.3-1.9-0.3-3.7,0-5.9
				c0-0.6,0.6-2.8,1.2-5.9c5.3-27,13.7-69.3,25.2-127.1C595.5,290.8,595.2,289.5,594.9,288.9 M360.2,327.8
				c2.2-11.2,0.3-20.5-5.9-28.3c-6.2-7.8-15.2-11.5-26.4-11.5H171.3c-11.5,0-22.4,4-32.3,12.1c-9.9,8.1-16.2,18-18.3,29.2
				c-2.8,14.3-7.8,38.8-14.6,74c-6.2,31.4-11.2,55.9-14.6,74c-0.3,1.6-0.3,2.8,0.3,3.4c0.3,0.3,1.6,0.6,3.1,0.6
				c19.6,0,32.6,0,39.5,0c1.6,0,2.5-0.3,3.1-0.9s0.9-1.6,1.2-3.1c0.9-5,2.5-13.4,5-24.9c2.2-10.6,3.7-19,4.7-24.9
				c0.3-1.9,0.9-3.1,1.9-4c0.9-0.6,2.2-0.9,4-0.9c21.1,0,53.1,0.3,95.4,0.3c1.9,0,3.1-0.3,3.7-0.9c0.9-0.6,1.2-1.9,1.6-3.4
				c0.9-5.3,2.5-14,5-25.5c0.6-2.8,0.6-4.4,0.3-5c-0.3-0.3-2.2-0.6-5.3-0.6c-4.7,0-20.2,0-46.9,0c-19,0-34.8,0-46.9-0.6
				c-1.9,0-3.1-0.3-3.7-1.2c-0.6-0.6-0.6-1.9,0-3.7c0.3-1.9,3.1-14.9,8.1-39.8c1.2-5.9,3.7-10.6,7.8-13.7c4-3.4,9-5,14.9-5
				c46.9,0,82,0,105.7,0c6.2,0,10.9,1.9,14,5.9c3.1,3.7,4,9,3.1,14.9c-8.7,44.1-17.4,88.3-26.1,132.4c-0.3,1.9-0.3,3.1,0.3,3.7
				c0.6,0.6,1.6,0.9,3.4,0.9c14.6-0.3,27,0,37.6,0c1.9,0,3.1-0.3,4-0.9c0.6-0.6,1.2-1.9,1.6-3.7
				C341.9,419.4,351.9,370.3,360.2,327.8 M1006,599.7c0.3-2.5,0.6-4.7,0.3-6.5c-0.3-5-2.2-8.7-5.9-11.5c-3.4-2.8-8.1-4.4-13.4-4.4
				H880.1c-55.6,0-91.4,0-107.2,0c-1.9,0-3.4,0.3-4,0.9c-0.9,0.6-1.6,1.9-1.9,3.7c-1.6,9.6-3.1,18-5,25.8c-0.6,2.2-0.3,3.4,0.3,4
				s1.9,0.9,3.7,0.9c16.5,0,53.1,0,110.3,0c32.6,0,52.2,0,58.7,0c5.3,0,9.3,1.6,12.7,4.4c3.1,3.1,5,6.8,5,11.8
				c0,5.9-1.2,11.5-4.4,16.5c-2.5,4-5.6,6.8-9.9,8.7c-3.4,1.6-7.8,2.2-12.7,2.2c-62.5,0-118.7,0-168.7,0c-1.9,0-3.1,0.3-3.7,0.9
				c-0.9,0.6-1.6,1.9-1.9,3.7c-5,26.4-11.8,61.8-20.5,105.7c-0.3,1.6-0.3,2.8,0,3.1c0.3,0.6,1.6,0.9,3.1,0.9c13.1,0,26.4,0,39.5,0
				c1.6,0,2.5-0.3,3.1-0.9c0.6-0.6,0.9-1.6,1.2-3.1c0.6-4,5-25.8,12.7-65.6c0.6-3.1,1.9-5.6,3.4-6.8c1.9-1.6,4-2.2,7.1-2.2
				c63.1,0,101,0,113.4,0c5.6,0,9.9,1.2,12.4,3.7c2.8,2.5,4.4,6.5,5.3,12.1c1.9,13.1,4.7,32.9,8.1,59.4c0.3,1.2,0.3,2.2,0.9,2.8
				c0.6,0.6,1.2,0.9,2.8,0.9c17.4,0,31.7,0,43.2,0c1.6,0,2.8-0.3,3.1-0.9c0.3-0.6,0.3-1.6,0-3.1c-0.3-1.6-0.6-3.4-0.9-5.6
				c-0.3-3.1-0.6-5-0.6-5.6c-1.6-11.5-2.8-20.2-3.7-26.1c-1.6-10.3-2.8-19-4-26.1c-0.6-4-1.9-7.1-4-9c-1.9-1.9-5.3-3.1-9.3-4
				l-5.3-0.9c-0.9-0.3-1.2-0.6-1.6-0.9c-0.3-0.3,0-0.9,0.6-1.6c1.2-0.9,3.1-2.8,5.3-5c2.2-1.9,4.4-3.1,6.2-3.7
				c12.4-4.4,19.6-12.4,22.1-23.9c5-24.2,7.8-39.8,9.3-46.6C1005.4,602.2,1006,600,1006,599.7 M1120.3,581c0.3-1.6,0.3-2.8-0.3-3.1
				c-0.3-0.6-1.6-0.6-3.1-0.6c-15.8,0.3-28.6,0.3-38.5,0c-1.9,0-3.1,0.3-3.7,0.9s-1.2,1.9-1.6,3.4c-5.9,31.1-15.2,77.7-27.3,139.8
				c-1.2,5.9-1.9,9.6-1.9,11.2c-0.6,4.4-0.3,8.1,0.3,11.2c1.6,7.8,5.3,14,10.9,18.6c5.9,4.7,12.7,7.1,20.8,7.1c5.9,0,32.9,0,80.5,0
				c45.4,0,72.4,0,81.4,0c1.6,0,2.8-0.3,3.7-0.9c0.6-0.6,1.2-1.9,1.6-3.4c0.6-3.4,2.2-12.1,5-25.8c0.6-2.5,0.6-4,0.3-4.7
				c-0.3-0.3-1.9-0.6-4.7-0.6h-125.5c-3.7,0-6.2,0-6.8,0c-5.9-0.3-10.3-2.5-13.4-5.6c-3.1-3.4-4.4-7.8-3.7-13.4
				c0.3-1.9,0.6-3.7,0.9-5.9C1104.8,660.3,1113.2,617.4,1120.3,581 M1578.7,584.1c-5.6,4.7-9.3,10.9-10.9,19.3
				c-2.8,14.3-6.8,35.7-12.4,64.3c-1.6,7.5-0.3,13.4,2.8,17.4c3.4,4,9,6.2,16.5,6.2h120.6c14.3,0,22.4,0,24.2,0
				c4,0,7.5,1.2,10.6,3.4c2.8,2.2,5,5,5.9,8.7c1.6,5.9,0.9,11.5-1.9,17.4s-7.1,9.9-12.7,12.1c-2.5,0.9-5.3,1.9-8.4,2.2
				c-1.6,0-4.7,0.3-8.7,0.3c-33.3,0-58.4,0-75.2,0c-30.1,0-55,0-75.2,0c-1.9,0-3.1,0.3-4,0.9c-0.9,0.6-1.6,1.9-1.9,3.4
				c-1.9,11.5-3.7,20.2-5,25.8c-0.6,2.2-0.3,3.4,0.3,4c0.6,0.6,1.9,0.9,4,0.9c29.2,0,95.4,0,198,0c7.8,0,14.3-2.2,19.9-6.5
				c5.6-4.4,9.3-10.3,10.9-17.4c4-18.6,8.4-41.6,13.7-69.3c0.9-5.3,0-9.6-3.1-13.7c-2.8-3.7-6.8-6.2-12.1-6.8
				c-1.2-0.3-2.5-0.3-4-0.3c-1.9,0-3.1,0-4.4,0c-81.1,0-133.3,0-156.6,0c-2.2,0-3.7-0.3-4.4-0.9c-0.6-0.6-0.6-2.2,0-4.4
				c1.6-6.2,3.1-14.6,4.7-25.5c0.6-5,2.2-8.4,4-10.3c1.9-1.9,5.6-2.8,10.6-2.8c89.2,0,148.5,0,178.4,0c2.2,0,3.4-0.3,4.4-1.2
				c0.9-0.6,1.6-2.2,1.9-4c1.9-11.2,3.4-19.6,5-24.9c0.6-2.2,0.6-3.7,0-4.4c-0.6-0.6-1.9-0.9-4.4-0.9c-11.8,0-47.2,0-106.3,0h-103.8
				C1591.5,577.3,1584.3,579.5,1578.7,584.1 M1454.7,612.4c5.3,0.3,9.3,1.9,12.4,4.7c3.1,3.1,4.7,7.1,4.4,12.7
				c-0.3,3.1-0.6,6.2-1.2,9.9c-0.3,1.9-0.9,5.3-1.9,9.9c-5,26.4-9.3,48.5-13.1,66.2c-2.2,10.9-8.7,16.8-19.3,18.3
				c-2.5,0.3-5.3,0.6-8.4,0.6h-82c-3.1,0-4.7-0.3-5.3-0.6c-0.3-0.3-0.3-2.2,0.3-5.3l13.7-68.4c0.3-1.9,0.3-2.8,0-3.4
				c-0.6-0.9-1.9-1.2-3.7-1.2c-5,0-10.9,0-17.7,0c-7.8,0-13.7,0-17.7,0c-3.4,0-5.6,0.3-6.2,0.9c-0.6,0.6-1.6,2.5-2.2,5.9
				l-20.2,102.2c-0.3,2.2-0.3,3.4,0,4c0.6,0.6,1.9,0.9,4,0.9c23.3,0,76.1,0,158.2,0c11.5,0,22.4-4.4,32.6-12.7
				c9.9-8.4,16.2-18.3,18.3-29.8c9-45.4,15.5-79.2,20.2-101.9c1.2-6.5,1.9-9.9,2.2-10.9c0.6-4,0.6-7.8,0-11.2
				c-1.6-8.1-5.3-14.6-10.9-19.3c-5.9-4.7-12.7-7.1-21.1-7.1c-5.9,0-32.6,0-80.2,0c-42,0-69,0-81.1,0c-1.9,0-3.4,0.3-4,0.9
				c-0.9,0.6-1.6,2.2-1.9,4c-0.3,3.4-1.2,7.8-2.2,12.4c-0.6,2.8-1.6,6.8-2.5,12.4c-0.6,2.8-0.6,4.4-0.3,4.7c0.3,0.6,1.9,0.6,4.7,0.6
				H1451C1452.9,612.4,1454.1,612.4,1454.7,612.4 M1207.1,328.1c4-3.4,10.3-5,18-5c65.9,0,109.7,0,131.4,0c2.2,0,3.4-0.3,4.4-1.2
				c0.9-0.6,1.2-2.2,1.6-4c1.6-9.9,3.4-18.3,5-24.9c0.6-2.2,0.6-3.4-0.3-4.4c-0.6-0.6-1.9-0.9-4-0.9c-11.8,0-38.5,0-80.2,0h-77.1
				c-11.8,0-22.7,4-32.6,11.8s-16.2,17.4-18.6,28.9c-3.1,14.6-6.8,33.3-11.2,55.6c-6.8,35.1-10.6,53.8-10.9,55.6
				c-1.9,9-0.6,17.4,3.7,24.5c3.4,5.9,7.8,9.9,13.7,12.7c5,2.5,11.2,3.4,18,3.4h159.4c1.2,0,1.9-0.3,2.5-0.6
				c0.6-0.3,0.9-1.2,1.2-2.5c2.2-11.5,4-20.8,5.6-27.7c0.3-1.9,0.3-3.1,0-3.7c-0.6-0.6-1.9-0.9-3.7-0.9c-7.1,0-39.2,0-96.3,0h-34.8
				c-6.2,0-11.2-1.9-14.9-5.3s-5.3-8.1-5-13.4c0-1.6,0.6-3.4,1.2-6.2c0.6-2.8,1.2-5,1.2-6.2c0.6-5,2.2-8.4,4-9.9
				c1.9-1.9,5.3-2.5,10.6-2.5c67.1,0,110,0,129.3,0c1.9,0,3.1-0.3,3.7-0.9c0.9-0.6,1.6-1.9,1.6-3.4c1.9-9.9,3.4-18,4.7-24.5
				c0.6-3.4,0.9-5.6,0.3-5.9c-0.3-0.3-2.2-0.3-5.6-0.3c-49.7,0-94.2,0-133.9,0c-2.2,0-3.4-0.3-4-0.9s-0.6-2.2-0.3-4
				c0.6-2.2,1.2-5,1.9-8.4l1.6-8.4C1199.9,337.1,1203,331.5,1207.1,328.1 M969.3,365.1c0.3-1.9,0.3-2.8-0.3-3.4s-1.6-0.6-3.4-0.6
				c-12.7,0-25.5,0-38.5,0c-1.6,0-2.5,0.3-3.4,0.6c-0.9,0.6-1.2,1.6-1.6,3.1c-0.6,2.8-5.6,25.5-14.6,68.1l-9,42
				c-0.6,2.8-0.6,4.4,0,5s2.2,0.9,5,0.9h17.7c2.2,0,5.3,0,9.3,0c3.7,0,6.8,0,9.3,0.3c1.9,0,3.1-0.3,4-0.9s1.6-1.9,1.9-3.7
				C954.7,432.5,962.5,395.2,969.3,365.1 M1122.5,143.5c1.2-2.5,1.6-4.7,0.6-6.8c-0.6-1.9-2.5-3.4-5-4.4c-4-1.6-9-2.5-14.6-2.8
				c-14.6-0.6-30.1,0.9-47.2,5.3c-4,0.9-7.8,1.2-10.9,0.3c-3.4-0.9-6.5-2.5-9.6-5.3c-19.6-17.4-41-25.8-63.7-25.5c-2.8,0-5,0-6.2,0
				c-2.5,0-4.7,0.3-6.2,0.6c-22.4,3.7-41,14-55.3,31.1c-14.3,16.8-21.4,37-21.8,60c0,6.5-2.8,11.8-8.1,15.8
				c-12.1,9.3-21.1,16.5-27,21.1c-4.7,3.7-8.4,7.1-11.2,9.9c-3.7,4-6.5,8.1-8.4,12.4c-1.2,3.1-1.6,5.6-0.3,7.8
				c0.9,2.2,3.1,3.7,6.2,4.4c4.4,0.9,8.7,1.9,13.4,1.9c7.1,0.3,15.2,0.3,23.6-0.9c6.2-0.6,14-2.2,23.3-4c4.4-0.9,8.1-0.9,11.5,0.3
				c3.4,0.9,6.8,3.1,10.3,5.9c11.8,10.6,24.5,17.7,38.2,21.4c14,3.7,28.3,4,43.8,0.9c19.6-4.4,36-14.3,49.1-30.5
				c13.1-15.8,19.9-33.9,20.8-54.4c0.3-5.3,0.6-9,1.6-11.5c1.2-4,3.7-7.1,7.1-9.6c4-2.8,8.7-6.2,14-10.6c3.1-2.5,7.5-5.9,13.7-10.9
				C1112.6,159,1118.8,151.6,1122.5,143.5 M1622.8,292.6c-6.8-3.7-14.6-5.3-23.6-4.7c-14.3,1.2-27,6.8-38.8,17.4
				c-11.8,10.3-19,22.7-21.8,36.4c-0.9,4.7-7.8,39.8-21.1,105.7c-3.1,16.2-5,25.8-5.6,28.6c-0.3,2.2-0.6,3.1-0.6,3.1
				c0,1.2,0.9,1.9,2.8,1.9c2.2,0,9,0,20.2,0c8.1,0,14.9,0,20.2-0.3c1.6,0,2.5-0.6,3.1-1.2c0.3-0.6,0.9-1.6,0.9-2.8l6.8-34.5
				c7.8-39.8,13.7-69.3,17.7-89.2c0.9-4,2.5-7.1,5.3-9.3c2.8-2.2,6.2-2.8,10.3-2.5c2.5,0.3,4.7,1.2,6.5,3.1c1.2,1.2,2.8,3.1,4.4,5.6
				l69,107.5c4.7,7.5,10.3,13.1,16.2,17.1c6.5,4.4,14.3,6.5,23,6.8c0.9,0.3,2.2,0,3.7-0.3c0.9-0.3,2.5-0.6,4.4-0.9
				c14-2.5,26.1-8.7,36.4-18.3c10.3-9.6,16.5-21.4,19.3-35.1c3.1-15.2,5.3-26.4,6.8-33.9l19.9-99.4c0.3-1.9,0.3-3.1-0.3-3.7
				c-0.6-0.6-1.9-1.2-3.7-0.9c-13.4,0.3-25.8,0.3-37.6,0c-1.9,0-3.1,0.3-3.7,0.9s-1.2,1.9-1.6,3.4c-4,21.4-7.5,39.2-10.3,53.1
				l-14,70.2c-1.2,6.5-4.7,10.6-10.6,11.5c-5.6,0.9-10.3-1.2-14-7.1c-1.6-2.5-3.7-5.6-6.2-9.6c-3.4-5.3-5.6-8.4-6.2-9.3l-60.3-91.7
				C1634.6,301.7,1629.1,296.1,1622.8,292.6z"/>
		</g>
	</g>
	<g>
		<path class="st15" d="M98,989.2c-6.8,0-12.6-2.4-17.4-7.2c-4.8-4.8-7.2-10.6-7.2-17.4v-82.2c0-6.8,2.4-12.6,7.2-17.4
			c4.8-4.8,10.6-7.2,17.4-7.2h106.5v22.1H101.8c-3,0-4.9,0.3-5.6,0.9c-0.7,0.6-1,2.4-1,5.5v74.5c0,3,0.3,4.9,1,5.5
			c0.7,0.6,2.5,0.9,5.6,0.9h102.6v22.1H98z"/>
		<path class="st15" d="M302.5,989.2c-6.8,0-12.6-2.4-17.4-7.2c-4.8-4.8-7.2-10.6-7.2-17.4v-82.2c0-6.8,2.4-12.6,7.2-17.4
			c4.8-4.8,10.6-7.2,17.4-7.2h82.2c6.8,0,12.6,2.4,17.4,7.2c4.8,4.8,7.2,10.6,7.2,17.4v82.2c0,6.8-2.4,12.6-7.2,17.4
			c-4.8,4.8-10.6,7.2-17.4,7.2H302.5z M306.4,967.1h74.3c3,0,4.9-0.3,5.6-0.9c0.7-0.6,1-2.4,1-5.5v-74.5c0-3-0.3-4.9-1-5.5
			c-0.7-0.6-2.5-0.9-5.6-0.9h-74.3c-3,0-4.9,0.3-5.6,0.9c-0.7,0.6-1,2.4-1,5.5v74.5c0,3,0.3,4.9,1,5.5
			C301.5,966.8,303.3,967.1,306.4,967.1z"/>
		<path class="st15" d="M484.3,989.2V857.6h25l49.3,58.8l49.1-58.8h25.2v131.5h-22.1V888.3l-52.2,62.3l-52.4-62.1v100.6H484.3z"/>
		<path class="st15" d="M708.6,989.2V857.6h25l49.3,58.8l49.1-58.8h25.2v131.5h-22.1V888.3l-52.2,62.3l-52.4-62.1v100.6H708.6z"/>
		<path class="st15" d="M957.1,989.2c-6.8,0-12.6-2.4-17.4-7.2c-4.8-4.8-7.2-10.6-7.2-17.4V857.6h21.9v103c0,3,0.3,4.9,1,5.5
			c0.7,0.6,2.5,0.9,5.6,0.9h74.3c3,0,4.9-0.3,5.6-0.9c0.7-0.6,1-2.4,1-5.5v-103h22.1v106.9c0,6.8-2.4,12.6-7.2,17.4
			c-4.8,4.8-10.6,7.2-17.4,7.2H957.1z"/>
		<path class="st15" d="M1138.9,989.2V857.6h25l84.4,100.5V857.6h22.1v131.5h-25l-84.6-100.6v100.6H1138.9z"/>
		<path class="st15" d="M1344.9,989.2V857.6h21.7v131.5H1344.9z"/>
		<path class="st15" d="M1489.7,989.2V879.7h-54.8v-22.1h131.5v22.1h-54.6v109.4H1489.7z"/>
		<path class="st15" d="M1688.5,989.2v-49.3l-60.6-82.2h25.8l46,57.7l45.5-57.7h26.1l-60.6,82.4v49.1H1688.5z"/>
	</g>
</g>
</svg>
